<svg xmlns="http://www.w3.org/2000/svg" viewBox="0 0 64 64"><title>File data</title><g id="File_data" data-name="File data"><path d="M57,14H47a1,1,0,0,1-1-1V12a6,6,0,0,1,12,0v1A1,1,0,0,1,57,14Zm-9-2h8a4,4,0,0,0-8,0Z"/><path d="M42,58H12a6,6,0,0,1-6-6V51a1,1,0,0,1,1-1H37a1,1,0,0,1,1,1v1a4,4,0,0,0,4,4,1,1,0,0,1,0,2ZM8,52a4,4,0,0,0,4,4H37.53A6,6,0,0,1,36,52Z"/><path d="M42,58a6,6,0,0,1-6-6H12a1,1,0,0,1-1-1V12a6,6,0,0,1,6-6H52a1,1,0,0,1,0,2,4,4,0,0,0-4,4V51.78A6.19,6.19,0,0,1,42.59,58ZM13,50H37a1,1,0,0,1,1,1v1a4,4,0,0,0,1.31,3,4,4,0,0,0,3.09,1,4.15,4.15,0,0,0,3.6-4.2V12a6,6,0,0,1,1.53-4H17a4,4,0,0,0-4,4Z"/><path d="M35,41H23a3,3,0,0,1-3-3V30a3,3,0,0,1,3-3H35a3,3,0,0,1,3,3v8A3,3,0,0,1,35,41ZM23,29a1,1,0,0,0-1,1v8a1,1,0,0,0,1,1H35a1,1,0,0,0,1-1V30a1,1,0,0,0-1-1Z"/><path d="M34,29H24a1,1,0,0,1-1-1V25a6,6,0,0,1,12,0v3A1,1,0,0,1,34,29Zm-9-2h8V25a4,4,0,0,0-8,0Z"/><path d="M28,37a1,1,0,0,1-.71-.29l-2-2a1,1,0,0,1,1.42-1.42L28,34.59l3.29-3.3a1,1,0,0,1,1.42,1.42l-4,4A1,1,0,0,1,28,37Z"/><path d="M57,14H47a1,1,0,0,1-1-1V12a6,6,0,0,1,12,0v1A1,1,0,0,1,57,14Zm-9-2h8a4,4,0,0,0-8,0Z"/></g></svg>