<svg xmlns="http://www.w3.org/2000/svg" viewBox="0 0 64 64"><title>finger print</title><g id="finger_print" data-name="finger print"><path d="M35.85,51.53a1,1,0,0,1-.54-.16A1,1,0,0,1,35,50a25.54,25.54,0,0,0,4-13.77V33a1,1,0,0,1,2,0v3.22a27.51,27.51,0,0,1-4.31,14.85A1,1,0,0,1,35.85,51.53Z"/><path d="M24,34a1,1,0,0,1-1-1V30a9,9,0,0,1,17.93-1.13,1,1,0,0,1-2,.26A7,7,0,0,0,25,30v3A1,1,0,0,1,24,34Z"/><path d="M19.59,46.1a1,1,0,0,1-.71-1.7l1.25-1.26A9.77,9.77,0,0,0,23,36.93,1,1,0,0,1,24,36,1,1,0,0,1,25,37.07a11.77,11.77,0,0,1-3.42,7.48L20.3,45.8A1,1,0,0,1,19.59,46.1Z"/><path d="M41.81,48.65a.91.91,0,0,1-.39-.08,1,1,0,0,1-.53-1.31c.09-.21.17-.43.24-.65a1,1,0,1,1,1.9.64c-.09.26-.19.52-.3.79A1,1,0,0,1,41.81,48.65Z"/><path d="M43,45.09l-.26,0A1,1,0,0,1,42,43.83a29,29,0,0,0,1-7.61V30a10.86,10.86,0,0,0-3.31-7.85,1,1,0,1,1,1.4-1.44A12.92,12.92,0,0,1,45,30v6.22a31.3,31.3,0,0,1-1,8.13A1,1,0,0,1,43,45.09Z"/><path d="M17.43,42.6a1,1,0,0,1-.71-.29,1,1,0,0,1,0-1.42l.58-.58A5.74,5.74,0,0,0,19,36.22V30A13,13,0,0,1,37.61,18.27a1,1,0,1,1-.86,1.8A11,11,0,0,0,21,30v6.22a7.76,7.76,0,0,1-2.28,5.5l-.58.59A1,1,0,0,1,17.43,42.6Z"/><path d="M35.85,51.53a1,1,0,0,1-.54-.16A1,1,0,0,1,35,50a25.54,25.54,0,0,0,4-13.77V33a1,1,0,0,1,2,0v3.22a27.51,27.51,0,0,1-4.31,14.85A1,1,0,0,1,35.85,51.53Z"/><path d="M24,34a1,1,0,0,1-1-1V30a9,9,0,0,1,17.93-1.13,1,1,0,0,1-2,.26A7,7,0,0,0,25,30v3A1,1,0,0,1,24,34Z"/><path d="M19.59,46.1a1,1,0,0,1-.71-1.7l1.25-1.26A9.77,9.77,0,0,0,23,36.93,1,1,0,0,1,24,36,1,1,0,0,1,25,37.07a11.77,11.77,0,0,1-3.42,7.48L20.3,45.8A1,1,0,0,1,19.59,46.1Z"/><path d="M30.6,51.94a1,1,0,0,1-.76-1.65,21.58,21.58,0,0,0,4.69-9.55A1,1,0,0,1,35.71,40a1,1,0,0,1,.78,1.19,23.65,23.65,0,0,1-5.13,10.44A1,1,0,0,1,30.6,51.94Z"/><path d="M23.67,47.67a1,1,0,0,1-.71-.29A1,1,0,0,1,23,46a13.65,13.65,0,0,0,4-9.74V30a5,5,0,0,1,10,0v6.22c0,.29,0,.57,0,.86a1,1,0,0,1-2-.16c0-.23,0-.46,0-.7V30a3,3,0,0,0-6,0v6.22a15.69,15.69,0,0,1-4.62,11.16A1,1,0,0,1,23.67,47.67Z"/><path d="M26.5,50.5a1,1,0,0,1-.71-.29,1,1,0,0,1,0-1.42c.3-.3.59-.6.86-.92a1,1,0,0,1,1.52,1.3c-.31.36-.62.7-1,1A1,1,0,0,1,26.5,50.5Z"/><path d="M29.15,47.16a1,1,0,0,1-.85-1.53A17.66,17.66,0,0,0,31,36.22V30a1,1,0,0,1,2,0v6.22a19.7,19.7,0,0,1-3,10.47A1,1,0,0,1,29.15,47.16Z"/><path d="M48,36a1,1,0,0,1-1-1V30a15,15,0,0,0-27-9,1,1,0,0,1-1.6-1.2A17,17,0,0,1,49,30v5A1,1,0,0,1,48,36Z"/><path d="M16,36a1,1,0,0,1-1-1V30a16.86,16.86,0,0,1,1.31-6.54,1,1,0,0,1,1.84.76A15.13,15.13,0,0,0,17,30v5A1,1,0,0,1,16,36Z"/><path d="M7,19a1,1,0,0,1-1-1V7A1,1,0,0,1,7,6H18a1,1,0,0,1,0,2H8V18A1,1,0,0,1,7,19Z"/><path d="M57,19a1,1,0,0,1-1-1V8H46a1,1,0,0,1,0-2H57a1,1,0,0,1,1,1V18A1,1,0,0,1,57,19Z"/><path d="M57,58H46a1,1,0,0,1,0-2H56V46a1,1,0,0,1,2,0V57A1,1,0,0,1,57,58Z"/><path d="M18,58H7a1,1,0,0,1-1-1V46a1,1,0,0,1,2,0V56H18a1,1,0,0,1,0,2Z"/></g></svg>