<svg xmlns="http://www.w3.org/2000/svg" viewBox="0 0 64 64"><title>folder</title><g id="folder"><path d="M53,58a5,5,0,0,1-5-5V51a1,1,0,0,1,1-1h3V21a1,1,0,0,1,1-1h4a1,1,0,0,1,1,1V53A5,5,0,0,1,53,58Zm-3-6v1a3,3,0,0,0,6,0V22H54V51a1,1,0,0,1-1,1Z"/><path d="M53,52H49a1,1,0,0,1-1-1V25H37.41l-3.7,3.71A1,1,0,0,1,33,29H11a1,1,0,0,1-1-1V7a1,1,0,0,1,1-1H53a1,1,0,0,1,1,1V51A1,1,0,0,1,53,52Zm-3-2h2V8H12V27H32.59l3.7-3.71A1,1,0,0,1,37,23H49a1,1,0,0,1,1,1Z"/><path d="M53,58H11a5,5,0,0,1-5-5V28a1,1,0,0,1,1-1H32.59l3.7-3.71A1,1,0,0,1,37,23H49a1,1,0,0,1,1,1V53a3,3,0,0,0,3,3,1,1,0,0,1,0,2ZM8,29V53a3,3,0,0,0,3,3H49a5,5,0,0,1-1-3V25H37.41l-3.7,3.71A1,1,0,0,1,33,29Z"/><path d="M34,53H22a3,3,0,0,1-3-3V42a3,3,0,0,1,3-3H34a3,3,0,0,1,3,3v8A3,3,0,0,1,34,53ZM22,41a1,1,0,0,0-1,1v8a1,1,0,0,0,1,1H34a1,1,0,0,0,1-1V42a1,1,0,0,0-1-1Z"/><path d="M33,41H23a1,1,0,0,1-1-1V37a6,6,0,0,1,12,0v3A1,1,0,0,1,33,41Zm-9-2h8V37a4,4,0,0,0-8,0Z"/><path d="M27,49a1,1,0,0,1-.71-.29l-2-2a1,1,0,0,1,1.42-1.42L27,46.59l3.29-3.3a1,1,0,0,1,1.42,1.42l-4,4A1,1,0,0,1,27,49Z"/><path d="M27,24H17a1,1,0,0,1-1-1,6,6,0,0,1,12,0A1,1,0,0,1,27,24Zm-8.87-2h7.74a4,4,0,0,0-7.74,0Z"/><path d="M22,19a4,4,0,1,1,4-4A4,4,0,0,1,22,19Zm0-6a2,2,0,1,0,2,2A2,2,0,0,0,22,13Z"/><path d="M47,15H36a1,1,0,0,1,0-2H47a1,1,0,0,1,0,2Z"/><path d="M47,20H36a1,1,0,0,1,0-2H47a1,1,0,0,1,0,2Z"/></g></svg>