<svg xmlns="http://www.w3.org/2000/svg" viewBox="0 0 64 64"><title>key smartphone</title><g id="key_smartphone" data-name="key smartphone"><circle cx="17" cy="10" r="1"/><path d="M31,11H22a1,1,0,0,1,0-2h9a1,1,0,0,1,0,2Z"/><path d="M36,53H11a1,1,0,0,1-1-1V13a1,1,0,0,1,1-1H36a1,1,0,0,1,1,1V28a1,1,0,0,1-1,1H21.5l-2.25,3,2.25,3h2.11A5.24,5.24,0,0,1,30,34.7a5.26,5.26,0,0,1,6.71.59A1,1,0,0,1,37,36V52A1,1,0,0,1,36,53ZM12,51H35V36.45a3.24,3.24,0,0,0-4.29.26,1,1,0,0,1-1.42,0,3.23,3.23,0,0,0-4.58,0A1,1,0,0,1,24,37H21a1,1,0,0,1-.8-.4l-3-4a1,1,0,0,1,0-1.2l3-4A1,1,0,0,1,21,27H35V14H12Z"/><path d="M36,58H11l-.51,0-.44-.07a4.52,4.52,0,0,1-.6-.16,3.25,3.25,0,0,1-.4-.15,4.27,4.27,0,0,1-.83-.45,5,5,0,0,1-.52-.4,4.3,4.3,0,0,1-.47-.48,6.07,6.07,0,0,1-.43-.57,4.83,4.83,0,0,1-.32-.59A4.7,4.7,0,0,1,6,53V11a5,5,0,0,1,5-5H36a5,5,0,0,1,5,5V28a1,1,0,0,1-1,1H21.5l-2.25,3,2.25,3h2.11A5.24,5.24,0,0,1,30,34.7a5.24,5.24,0,0,1,6.39.3H40a1,1,0,0,1,1,1V53a4.78,4.78,0,0,1-.48,2.12,5.57,5.57,0,0,1-.32.58,6.07,6.07,0,0,1-.43.57,3.94,3.94,0,0,1-.5.5,3.9,3.9,0,0,1-.46.36,4.58,4.58,0,0,1-.89.48,2.72,2.72,0,0,1-.38.15,5.44,5.44,0,0,1-.64.16l-.16,0-.1,0-.13,0ZM11,8a3,3,0,0,0-3,3V53a2.72,2.72,0,0,0,.28,1.24,3.78,3.78,0,0,0,.22.4,2,2,0,0,0,.25.33l.28.28c.12.11.22.18.32.26a2.13,2.13,0,0,0,.45.23l.1,0,.14.05a2.79,2.79,0,0,0,.39.1l.24.05H36.31l.13,0,.1,0a2.64,2.64,0,0,0,.41-.11l.15-.05a3.85,3.85,0,0,0,.58-.3c.07-.06.17-.13.26-.22a3,3,0,0,0,.31-.3,2,2,0,0,0,.25-.33c.08-.13.15-.25.22-.39A2.79,2.79,0,0,0,39,53V37H36a1,1,0,0,1-.71-.29,3.23,3.23,0,0,0-4.58,0,1,1,0,0,1-1.42,0,3.3,3.3,0,0,0-4.58,0A1,1,0,0,1,24,37H21a1,1,0,0,1-.8-.4l-3-4a1,1,0,0,1,0-1.2l3-4A1,1,0,0,1,21,27H39V11a3,3,0,0,0-3-3Z"/><path d="M49,41a9,9,0,0,1-7.47-4H36a1,1,0,0,1-.71-.29,3.23,3.23,0,0,0-4.58,0,1,1,0,0,1-1.42,0,3.23,3.23,0,0,0-4.58,0A1,1,0,0,1,24,37H21a1,1,0,0,1-.8-.4l-3-4a1,1,0,0,1,0-1.2l3-4A1,1,0,0,1,21,27H41.53A9,9,0,1,1,49,41ZM36.39,35h5.69a1,1,0,0,1,.87.5,7,7,0,1,0,0-7,1,1,0,0,1-.87.5H21.5l-2.25,3,2.25,3h2.11A5.24,5.24,0,0,1,30,34.7,5.24,5.24,0,0,1,36.39,35Z"/><path d="M51,35a3,3,0,1,1,3-3A3,3,0,0,1,51,35Zm0-4a1,1,0,1,0,1,1A1,1,0,0,0,51,31Z"/></g></svg>