<svg xmlns="http://www.w3.org/2000/svg" viewBox="0 0 64 64"><title>user</title><g id="user"><path d="M48,58H16a6,6,0,0,1-6-6V31a6,6,0,0,1,6-6H48a6,6,0,0,1,6,6V52A6,6,0,0,1,48,58ZM16,27a4,4,0,0,0-4,4V52a4,4,0,0,0,4,4H48a4,4,0,0,0,4-4V31a4,4,0,0,0-4-4Z"/><path d="M47,27H42a1,1,0,0,1-1-1V22a9,9,0,0,0-18,0v4a1,1,0,0,1-1,1H17a1,1,0,0,1-1-1V22a16,16,0,0,1,32,0v4A1,1,0,0,1,47,27Zm-4-2h3V22A14,14,0,0,0,32,8,14,14,0,0,0,18,22v3h3V22a11,11,0,1,1,22,0Z"/><path d="M32,42a6,6,0,1,1,6-6A6,6,0,0,1,32,42Zm0-10a4,4,0,1,0,4,4A4,4,0,0,0,32,32Z"/><path d="M41,52H23a1,1,0,0,1-1-1V50a10,10,0,0,1,20,0v1A1,1,0,0,1,41,52ZM24,50H40a8,8,0,0,0-16,0Z"/></g></svg>